<svg fill="none" height="24" viewBox="0 0 64 24" width="64" xmlns="http://www.w3.org/2000/svg"><path clip-rule="evenodd" d="m4 2c0 1.10457-.89543 2-2 2-1.104568 0-2-.89543-2-2 0-1.104568.895432-2 2-2 1.10457 0 2 .895432 2 2zm18 2c1.1046 0 2-.89543 2-2 0-1.104568-.8954-2-2-2s-2 .895432-2 2c0 1.10457.8954 2 2 2zm20 0c1.1046 0 2-.89543 2-2 0-1.104568-.8954-2-2-2s-2 .895432-2 2c0 1.10457.8954 2 2 2zm22-2c0 1.10457-.8954 2-2 2s-2-.89543-2-2c0-1.104568.8954-2 2-2s2 .895432 2 2zm-60 20c0 1.1046-.89543 2-2 2-1.104568 0-2-.8954-2-2s.895432-2 2-2c1.10457 0 2 .8954 2 2zm20 0c0 1.1046-.8954 2-2 2s-2-.8954-2-2 .8954-2 2-2 2 .8954 2 2zm18 2c1.1046 0 2-.8954 2-2s-.8954-2-2-2-2 .8954-2 2 .8954 2 2 2zm20 0c1.1046 0 2-.8954 2-2s-.8954-2-2-2-2 .8954-2 2 .8954 2 2 2z" fill="#8da2ed" fill-opacity=".5" fill-rule="evenodd"/></svg>