<svg fill="none" height="64" viewBox="0 0 64 64" width="64" xmlns="http://www.w3.org/2000/svg"><path clip-rule="evenodd" d="m2 4c1.10461 0 2-.89539 2-2 0-1.104614-.89539-2-2-2-1.104614 0-2 .895386-2 2 0 1.10461.895386 2 2 2zm20 0c1.1046 0 2-.89539 2-2 0-1.104614-.8954-2-2-2s-2 .895386-2 2c0 1.10461.8954 2 2 2zm-18 18c0 1.1046-.89539 2-2 2-1.104614 0-2-.8954-2-2s.895386-2 2-2c1.10461 0 2 .8954 2 2zm18 2c1.1046 0 2-.8954 2-2s-.8954-2-2-2-2 .8954-2 2 .8954 2 2 2zm22-22c0 1.10461-.8954 2-2 2s-2-.89539-2-2c0-1.104614.8954-2 2-2s2 .895386 2 2zm20 0c0 1.10461-.8954 2-2 2s-2-.89539-2-2c0-1.104614.8954-2 2-2s2 .895386 2 2zm-22 22c1.1046 0 2-.8954 2-2s-.8954-2-2-2-2 .8954-2 2 .8954 2 2 2zm22-2c0 1.1046-.8954 2-2 2s-2-.8954-2-2 .8954-2 2-2 2 .8954 2 2zm-62 22c1.10457 0 2-.8954 2-2s-.89543-2-2-2c-1.104568 0-2 .8954-2 2s.895432 2 2 2zm20 0c1.1046 0 2-.8954 2-2s-.8954-2-2-2-2 .8954-2 2 .8954 2 2 2zm-18 18c0 1.1046-.89543 2-2 2-1.104568 0-2-.8954-2-2s.895432-2 2-2c1.10457 0 2 .8954 2 2zm18 2c1.1046 0 2-.8954 2-2s-.8954-2-2-2-2 .8954-2 2 .8954 2 2 2zm22-22c0 1.1046-.8954 2-2 2s-2-.8954-2-2 .8954-2 2-2 2 .8954 2 2zm20 0c0 1.1046-.8954 2-2 2s-2-.8954-2-2 .8954-2 2-2 2 .8954 2 2zm-22 22c1.1046 0 2-.8954 2-2s-.8954-2-2-2-2 .8954-2 2 .8954 2 2 2zm22-2c0 1.1046-.8954 2-2 2s-2-.8954-2-2 .8954-2 2-2 2 .8954 2 2z" fill="#8da2ed" fill-opacity=".5" fill-rule="evenodd"/></svg>