<svg fill="none" height="72" viewBox="0 0 66 72" width="66" xmlns="http://www.w3.org/2000/svg"><g clip-rule="evenodd" fill-rule="evenodd"><path d="m33.01.966797h-31.57689l6.19814 62.572003 25.37875 7.2583 25.3577-7.2583 6.4006-62.572003" fill="#e4492f"/><path d="m8.66125 62.7506 24.32905 6.8429 24.3077-6.8429 6.219-60.77908h-60.83226zm24.34845 9.2492-26.40758-7.435-6.60212-64.5648h66l-6.5818 64.5648z" fill="#131741"/><path d="m53.393 59.9285 5.3702-54.32889h-26.0034v59.75209" fill="#e96d31"/><path d="m42.046 46.2451-9.2867 3.6283-9.066-2.8199v-6.0338l-8.4797-.2166 1.0295 11.8715 16.3128 5.2254 16.6774-4.8315 2.0801-23.7628h-29.4776l-.828-8.0265h30.9312l.4241-7.869h-39.7947l2.2816 23.547h27.2161" fill="#fff"/></g></svg>