<svg fill="none" height="72" viewBox="0 0 66 72" width="66" xmlns="http://www.w3.org/2000/svg"><g clip-rule="evenodd" fill-rule="evenodd"><path d="m32.8961.994141h-31.85508l6.46136 62.696259 25.39372 7.2718 25.3947-7.2718 6.4613-62.696259" fill="#0066a9"/><path d="m8.54621 62.9155 24.35119 6.873 24.3521-6.873 6.2564-60.88343h-61.19592zm24.35119 9.0845-26.43668-7.4711-6.46072-64.5289h66l-6.4406 64.5289z" fill="#111840"/><path d="m53.9373 60.0869 5.1938-54.18846h-26.0081v59.44806" fill="#13a1d1"/><path d="m32.8967 58.0532-16.0293-4.4624-1.2675-12.7309 7.708-.1993.4288 6.6542 8.9556 2.8288 9.5688-3.845v-9.1047l-27.0501-.3783-.8387-7.2717 19.3631-7.9087-19.792-.3996-.6133-7.2708h39.3386l-.2044 7.6899-19.1587 7.6899 17.912.2197-1.8818 23.8262" fill="#fefefe"/></g></svg>