<svg fill="none" height="19" viewBox="0 0 18 19" width="18" xmlns="http://www.w3.org/2000/svg"><path clip-rule="evenodd" d="m5.20487 1.60941c-1.16299.53648-2.14995 1.06114-2.83086 1.85051-.65699.76164-.99542 1.77093-.61394 3.2877 1.19103 4.73548 5.28686 8.81278 9.85023 10.49248 1.0917.3478 2.2837.1191 3.0454-.611.7739-.7418 1.4693-1.9913 1.7209-3.0641.1092-.4655-.2325-.8003-.6207-.9927l-3.8107-1.889c-.1467-.0234-.2903.0318-.4904.2775-.3956.4859-.6198 1.1181-.8888 1.6806-1.96487-1.2107-3.50127-2.73404-4.52799-4.8322.5195-.27635 1.0969-.51935 1.53472-.91811.24288-.2212.30923-.39144.28411-.56106l-1.8253-4.18941c-.11481-.3803-.47059-.59049-.82667-.53121zm1.96393.14745c-.31496-.976081-1.40931-1.609068-2.40311-1.266317-1.18176.542777-2.41795 1.162637-3.30033 2.185577-.929427 1.07746-1.339233 2.49473-.869043 4.3642 1.278523 5.08338 5.627453 9.72348 10.634783 11.33828 1.4543.4689 3.129.196 4.2549-.8832.9509-.9114 1.7573-2.3706 2.0589-3.6563.1287-.5486.0257-1.0496-.2347-1.4621-.2512-.398-.6295-.6856-1.0213-.8799l-3.9884-1.96349c-.8174-.21653-1.4116.22182-1.7762.66949-.1759.216-.326.4661-.4516.7027-1.01605-.7113-1.82224-1.54402-2.43288-2.59832.24704-.1453.51296-.32157.74093-.52919.42169-.38406.82156-.97948.63565-1.76726z" fill="#fff" fill-rule="evenodd"/></svg>