<svg fill="none" height="24" viewBox="0 0 22 24" width="22" xmlns="http://www.w3.org/2000/svg"><g clip-rule="evenodd" fill-rule="evenodd"><path d="m11.0034.322021h-10.525617l2.066047 20.857279 8.45957 2.4195 8.4526-2.4195 2.1335-20.857279" fill="#e4492f"/><path d="m2.88708 20.9169 8.10972 2.2809 8.1025-2.2809 2.073-20.259728h-20.277387zm8.11612 3.083-8.80249-2.4783-2.20071-21.5216h22l-2.1939 21.5216z" fill="#131741"/><path d="m17.7977 19.9762 1.79-18.10962h-8.6678v19.91732" fill="#e96d31"/><path d="m14.0156 15.4147-3.0956 1.2094-3.02197-.9399v-2.0113l-2.82659-.0722.34317 3.9572 5.43759 1.7418 5.5592-1.6105.6933-7.92095h-9.82585l-.276-2.67552h10.31045l.1413-2.623h-13.2649l.76053 7.84897h9.07207" fill="#fff"/></g></svg>