<svg fill="none" height="24" viewBox="0 0 22 24" width="22" xmlns="http://www.w3.org/2000/svg"><g clip-rule="evenodd" fill-rule="evenodd"><path d="m10.9658.331543h-10.618388l2.153788 20.898757 8.4646 2.4239 8.4649-2.4239 2.1537-20.898757" fill="#0066a9"/><path d="m2.84874 20.9718 8.11706 2.291 8.1174-2.291 2.0854-20.294444h-20.398608zm8.11706 3.0282-8.81223-2.4904-2.15357-21.5096h22l-2.1469 21.5096z" fill="#111840"/><path d="m17.9791 20.0291 1.7313-18.06279h-8.6694v19.81599" fill="#13a1d1"/><path d="m10.9658 19.3514-5.34308-1.4875-.42252-4.2436 2.56933-.0664.14295 2.218 2.98522.9429 3.1896-1.2816v-3.0349l-9.01674-.1261-.27956-2.4239 6.4544-2.63623-6.59736-.1332-.20444-2.4236h13.1129l-.0682 2.56329-6.3862 2.56329 5.9707.07325-.6273 7.9421" fill="#fefefe"/></g></svg>