<svg fill="none" height="19" viewBox="0 0 18 19" width="18" xmlns="http://www.w3.org/2000/svg"><path clip-rule="evenodd" d="m4.80448 1.61039c-1.16299.53648-2.14995 1.06114-2.83086 1.85051-.65699.76163-.995421 1.77092-.61394 3.2877 1.19103 4.7355 5.28686 8.8128 9.85032 10.4924 1.0916.3479 2.2836.1191 3.0453-.6109.7739-.7418 1.4693-1.9913 1.7209-3.0641.1092-.4655-.2325-.8003-.6207-.9927l-3.8107-1.889c-.1467-.0235-.2903.0318-.4904.2775-.3956.4859-.6198 1.118-.8888 1.6806-1.96486-1.2107-3.50126-2.73407-4.52798-4.83222.5195-.27635 1.0969-.51936 1.53472-.91811.24288-.22121.30923-.39144.28411-.56106l-1.8253-4.18941c-.11481-.3803-.47059-.59049-.82667-.53121zm1.96393.14745c-.31496-.976084-1.40931-1.609072-2.40311-1.26632-1.18176.54278-2.41795 1.16264-3.30034 2.18557-.929417 1.07746-1.339224 2.49473-.869034 4.36421 1.278524 5.0834 5.627454 9.7235 10.634774 11.3383 1.4543.4689 3.129.196 4.2549-.8832.9509-.9114 1.7573-2.3706 2.0589-3.6564.1287-.5486.0257-1.0495-.2347-1.4621-.2512-.3979-.6295-.6856-1.0213-.8798l-3.9884-1.96351c-.8174-.21653-1.4116.22182-1.7761.66951-.17598.216-.32612.4661-.45167.7026-1.01607-.7113-1.82226-1.54394-2.4329-2.59824.24704-.1453.51296-.32157.74093-.5292.42168-.38405.82156-.97948.63565-1.76725z" fill="#8da2ed" fill-rule="evenodd"/></svg>