<svg fill="none" height="29" viewBox="0 0 16 29" width="16" xmlns="http://www.w3.org/2000/svg"><path clip-rule="evenodd" d="m1.2 8v5c0 3.7555 3.04446 6.8 6.8 6.8 3.7555 0 6.8-3.0445 6.8-6.8v-5c0-3.75553-3.0445-6.8-6.8-6.8-3.75554 0-6.8 3.04447-6.8 6.8zm6.8 13c4.4183 0 8-3.5817 8-8v-5c0-4.41828-3.5817-8-8-8-4.41828 0-8 3.58172-8 8v5c0 4.4183 3.58172 8 8 8zm0-11.00057c-.55228 0-1-.44771-1-1v-3c0-.55228.44772-1 1-1 .55229 0 1 .44772 1 1v3c0 .55229-.44772 1-1 1zm-4.65774 13.30677 4.65776 3.2349 4.65768-3.2349.6846.9856-5.00001 3.4727-.34226.2377-.34227-.2377-5.00002-3.4727z" fill="#8da2ed" fill-rule="evenodd"/></svg>