<svg fill="none" height="19" viewBox="0 0 18 19" width="18" xmlns="http://www.w3.org/2000/svg"><path clip-rule="evenodd" d="m5.0907 1.47413c-1.17322.53833-2.20641 1.09609-2.86894 1.86041-.62228.71789-.96228 1.67142-.59026 3.16694 1.76854 5.41952 5.16521 9.00772 10.2386 10.86572.7044.1957 1.2605.1999 1.7088.0951.4514-.1056.8412-.3327 1.1942-.6694.7237-.6902 1.2559-1.8014 1.7425-3.1125.0467-.2772-.1286-.5335-.3387-.5971l-.0593-.0179-4.0456-2.007c-.0082.0025-.0195.0073-.0356.0162-.0655.0359-.1645.12-.2802.2767-.2333.3159-.4082.7535-.4749 1.0318l-.2191.9151-.8397-.4332c-1.88323-.9717-3.56702-2.366-4.47473-4.76348l-.2679-.70757.71729-.24551.0009-.00031.01095-.00392c.0105-.00381.02764-.01015.05038-.01893.04562-.01763.11291-.0448.19371-.08091.16452-.07351.3712-.17792.56231-.30653.19794-.13321.33669-.26421.41035-.37673.04585-.07004.05646-.11413.05407-.15013l-1.9046-4.30898-.01458-.05403c-.07678-.28458-.30623-.39185-.46995-.37384zm2.31376 6.74219c.64525 1.31219 1.60736 2.22278 2.76444 2.93228.1098-.2284.2423-.4583.3965-.6671.3415-.4624 1.0244-1.11042 1.9594-.82891l.0598.01801 4.0882 2.0282c.9664.3306 1.5045 1.3748 1.2742 2.3519l-.0102.0435-.0155.0419c-.4949 1.342-1.1253 2.7632-2.1256 3.7173-.5135.4899-1.132.8647-1.8786 1.0393-.7442.174-1.5679.138-2.4773-.1195l-.0263-.0074-.0257-.0094c-5.54715-2.0227-9.2691-5.9806-11.169798-11.82652l-.007559-.02324-.005989-.0237c-.490457-1.94056-.06238-3.39958.898286-4.50785.90971-1.04947 2.25081-1.725438 3.4464-2.270602l.05649-.0257553.06001-.0160094c1.0299-.2747323 2.01391.3856407 2.30483 1.3445767l1.91567 4.33404.01461.0543c.14325.53241-.00003 1.00545-.23684 1.3672-.22503.34375-.54266.60498-.8205.79196-.14913.10036-.29931.1876-.43895.26152z" fill="#288be6" fill-rule="evenodd"/></svg>